<svg xmlns="http://www.w3.org/2000/svg" width="16" height="15.994" viewBox="0 0 16 15.994">
    <defs>
        <clipPath id="v4n4zdky0a">
            <path fill="#03f" d="M0 0H16V15.994H0z" opacity="0.45"/>
        </clipPath>
    </defs>
    <g clip-path="url(#v4n4zdky0a)">
        <g fill="#da291c">
            <path stroke="rgba(0,0,0,0)" stroke-miterlimit="10" d="M8 16a2.969 2.969 0 0 1-3.048-2.813H.609a.6.6 0 0 1-.595-.435.526.526 0 0 1 .317-.612 3.01 3.01 0 0 0 .951-1.217 13.227 13.227 0 0 0 1-5.562 5.146 5.146 0 0 1 1.809-3.89c.121-.109.239-.208.351-.292.147-.109.276-.2.394-.271.044-.031.091-.058.137-.085L5.01.8l.063-.034a5.011 5.011 0 0 1 .485-.245L5.589.5H5.6a.468.468 0 0 1 .059-.03L5.71.455A5.987 5.987 0 0 1 6.818.116l.027-.007h.018c.127-.024.256-.044.395-.059l.055-.007a.973.973 0 0 1 .11-.014A5.08 5.08 0 0 1 8 0a4.947 4.947 0 0 1 .576.029c.034 0 .067.006.1.011H8.713l.041.006.055.008.055.008c.089.012.184.024.276.043h.02l.025.007c.084.017.175.037.277.063a4.464 4.464 0 0 0-.806.976A4.834 4.834 0 0 0 8 1.111a4.4 4.4 0 0 0-4.536 4.247 13.235 13.235 0 0 1-1.2 6.2 5.054 5.054 0 0 1-.31.511h12.089c-.107-.157-.208-.324-.311-.511a10.25 10.25 0 0 1-1.04-3.568 4.546 4.546 0 0 0 1.17-.206 9.646 9.646 0 0 0 .854 3.134 2.972 2.972 0 0 0 .955 1.217.534.534 0 0 1 .317.612.6.6 0 0 1-.594.435h-4.341A2.977 2.977 0 0 1 8 16zm-1.863-2.815A1.821 1.821 0 0 0 8 14.89a1.827 1.827 0 0 0 1.867-1.705z" transform="translate(0 .002)"/>
            <circle cx="3.5" cy="3.5" r="3.5" transform="translate(9.001)"/>
        </g>
    </g>
</svg>
