<svg xmlns="http://www.w3.org/2000/svg" width="16" height="16" viewBox="0 0 16 16">
    <defs>
        <clipPath id="clip-path">
            <path id="사각형_903" fill="#002bff" d="M0 0H16V16H0z" opacity="0.43" transform="translate(531.672 511.469)"/>
        </clipPath>
        <style>
            .cls-5,.cls-6{stroke:none}.cls-6{fill:#333}
        </style>
    </defs>
    <g id="alarm_button_off" transform="translate(-531.873 -511.469)">
        <g id="마스크_그룹_14" clip-path="url(#clip-path)" transform="translate(.201)">
            <g id="그룹_1108" fill="none">
                <g id="빼기_1">
                    <path d="M-15342.836-5098.033a2.5 2.5 0 0 1-2.5-2.5 2.573 2.573 0 0 1 .022-.332h4.956a2.58 2.58 0 0 1 .021.332 2.5 2.5 0 0 1-2.499 2.5z" class="cls-5" transform="translate(15882.508 5624.733)"/>
                    <path d="M-15342.836-5099.033c.587 0 1.097-.339 1.343-.831h-2.686c.246.492.756.831 1.343.831m0 1c-1.379 0-2.5-1.121-2.5-2.5 0-.108.008-.219.023-.331h4.956c.014.113.021.224.021.331 0 1.379-1.121 2.5-2.5 2.5z" class="cls-6" transform="translate(15882.508 5624.733)"/>
                </g>
                <g id="패스_2263" stroke-miterlimit="10">
                    <path d="M546.36 523.039a2.906 2.906 0 0 1-.9-1.2 13.69 13.69 0 0 1-.932-5.485v-.02a5.241 5.241 0 0 0-2.031-4.107c-.112-.087-.227-.171-.345-.251-.081-.055-.165-.106-.25-.156-.144-.084-.29-.163-.44-.234-.034-.016-.065-.037-.1-.052l-.052-.017a5.254 5.254 0 0 0-1.036-.33l-.023-.008h-.019c-.119-.024-.241-.039-.363-.055-.054-.007-.107-.019-.162-.024q-.265-.027-.538-.027c-.182 0-.363.009-.541.027-.053.005-.1.016-.157.023-.124.016-.247.032-.368.056h-.018l-.023.007a5.285 5.285 0 0 0-1.038.332l-.05.016c-.033.014-.063.036-.1.051-.156.073-.307.155-.454.242-.075.044-.151.09-.224.139-.126.084-.247.173-.366.267s-.225.185-.33.285a5.226 5.226 0 0 0-1.7 3.837 13.69 13.69 0 0 1-.933 5.485 2.915 2.915 0 0 1-.9 1.2.528.528 0 0 0-.3.6.563.563 0 0 0 .552.426H546.1a.563.563 0 0 0 .553-.426.528.528 0 0 0-.293-.601z" class="cls-5" transform="translate(.5 .4)"/>
                    <path d="M544.657 522.869c-.091-.152-.184-.322-.274-.51-.864-1.802-1.05-4.241-1.05-5.98l-.002-.018v-.023c-.004-1.23-.577-2.385-1.57-3.166-.098-.076-.188-.141-.274-.199l-.002-.002-.003-.002c-.054-.036-.12-.076-.188-.117-.123-.072-.234-.131-.337-.18-.024-.01-.046-.022-.065-.032l-.006-.002-.05-.022c-.264-.114-.533-.2-.8-.255l-.073-.015-.007-.003c-.06-.01-.131-.02-.205-.03l-.034-.003-.108-.017-.024-.004c-.135-.013-.275-.02-.416-.02-.14 0-.28.007-.416.02l-.027.005-.093.014h-.008l-.003.001c-.094.012-.182.024-.257.037l-.007.002-.052.011c-.271.057-.541.143-.802.257l-.056.025-.004.001c-.018.01-.038.019-.06.029-.108.05-.223.112-.348.186-.065.039-.123.073-.17.105l-.002.001-.002.001c-.088.058-.18.126-.28.206-.1.078-.18.148-.248.213l-.004.003-.003.003-.004.004-.003.003c-.847.786-1.313 1.837-1.313 2.958 0 1.74-.182 4.194-1.051 6.006-.091.188-.183.357-.275.509h10.976m1.446 1.2h-13.868c-.26-.002-.498-.175-.552-.426-.055-.25.061-.498.296-.604.056-.036.474-.326.895-1.2.771-1.607.933-3.869.933-5.485 0-1.514.658-2.873 1.696-3.837.106-.101.217-.195.33-.286.12-.094.24-.184.367-.267.073-.05.149-.095.224-.139.147-.087.298-.169.454-.242.032-.015.062-.036.096-.05l.05-.016c.329-.144.675-.257 1.037-.333l.024-.007.018-.002c.12-.024.245-.04.368-.056.053-.007.104-.018.157-.023.178-.018.359-.027.54-.027h.004c.181 0 .36.009.538.027.055.005.108.017.162.024.122.016.244.03.363.055l.02.002.023.008c.362.075.707.188 1.036.33l.051.018c.035.015.065.036.1.052.15.071.297.15.44.235.085.05.169.101.25.156.118.08.233.164.345.25 1.229.965 2.025 2.444 2.031 4.108l.001.02c0 1.616.162 3.878.933 5.485.42.874.84 1.164.895 1.2.235.106.35.353.296.604-.054.251-.292.424-.553.426z" class="cls-6" transform="translate(.5 .4)"/>
                </g>
            </g>
        </g>
    </g>
</svg>
