<svg xmlns="http://www.w3.org/2000/svg" width="16" height="16" viewBox="0 0 16 16">
    <defs>
        <clipPath id="clip-path">
            <path id="사각형_903" fill="#002bff" d="M0 0H16V16H0z" opacity="0.43" transform="translate(531.672 511.469)"/>
        </clipPath>
        <style>
            .cls-3{fill:#da291c}
        </style>
    </defs>
    <g id="alarm_button_on" transform="translate(-531.873 -511.469)">
        <g id="마스크_그룹_14" clip-path="url(#clip-path)" transform="translate(.201)">
            <g id="그룹_1108">
                <path id="빼기_1" d="M-15342.835-5098.031a2.5 2.5 0 0 1-2.5-2.5h5a2.5 2.5 0 0 1-2.5 2.5z" class="cls-3" transform="translate(15882.508 5625)"/>
                <path id="패스_2263" d="M546.36 522.118a2.736 2.736 0 0 1-.9-1.107 11.769 11.769 0 0 1-.932-5.063v-.019a4.72 4.72 0 0 0-2.031-3.791c-.112-.08-.227-.158-.345-.231-.081-.051-.165-.1-.25-.144-.144-.078-.29-.151-.44-.216-.034-.015-.065-.034-.1-.048l-.052-.016a5.571 5.571 0 0 0-1.036-.305l-.023-.007h-.019c-.119-.022-.241-.036-.363-.051-.054-.007-.107-.017-.162-.022q-.265-.025-.538-.025c-.182 0-.363.008-.541.025-.053 0-.1.015-.157.021-.124.015-.247.03-.368.052h-.018l-.023.007a5.609 5.609 0 0 0-1.038.307l-.05.015c-.033.013-.063.033-.1.047-.156.067-.307.143-.454.223-.075.041-.151.083-.224.128-.126.077-.247.16-.366.247s-.225.171-.33.263a4.666 4.666 0 0 0-1.7 3.542 11.769 11.769 0 0 1-.933 5.063 2.744 2.744 0 0 1-.9 1.107.478.478 0 0 0-.3.558.556.556 0 0 0 .552.394H546.1a.557.557 0 0 0 .553-.394.478.478 0 0 0-.293-.56z" class="cls-3" transform="translate(.5 .4)"/>
            </g>
        </g>
    </g>
</svg>
