<svg xmlns="http://www.w3.org/2000/svg" width="17.252" height="18.259" viewBox="0 0 17.252 18.259">
    <g id="prefix__btn_info" transform="translate(-1389.998 -8.75)">
        <g id="prefix___-e-_ico_alrim_on" data-name="-e- ico_alrim_on">
            <path id="prefix__Alrim" fill="#333" d="M1405.67 23.144a2.98 2.98 0 0 1-.955-1.217 13.269 13.269 0 0 1-1-5.563v-.021a5.233 5.233 0 0 0-2.167-4.166c-.119-.089-.241-.174-.367-.254-.087-.056-.176-.108-.267-.159-.153-.085-.309-.166-.47-.238-.036-.017-.069-.038-.106-.054l-.055-.017a5.876 5.876 0 0 0-1.1-.336l-.025-.008h-.02c-.127-.024-.257-.04-.387-.056-.058-.007-.115-.019-.174-.024Q1398.292 11 1398 11c-.195 0-.387.01-.577.028-.057.005-.111.016-.167.023-.132.016-.264.032-.393.057h-.02l-.025.007a5.871 5.871 0 0 0-1.107.337l-.053.016c-.036.015-.067.036-.1.052-.166.074-.327.156-.484.245-.081.046-.161.092-.239.141-.135.085-.264.176-.391.271s-.24.188-.352.29a5.188 5.188 0 0 0-1.809 3.893 13.273 13.273 0 0 1-1 5.563 2.98 2.98 0 0 1-.955 1.217.53.53 0 0 0-.316.613.6.6 0 0 0 .594.433h4.343a3.06 3.06 0 0 0 6.1 0h4.343a.6.6 0 0 0 .594-.433.53.53 0 0 0-.316-.609zM1398 25.9a1.816 1.816 0 0 1-1.865-1.707h3.73A1.816 1.816 0 0 1 1398 25.9zm2.386-2.818h-8.428a5.649 5.649 0 0 0 .31-.51 13.256 13.256 0 0 0 1.2-6.206 4.545 4.545 0 0 1 9.07 0v.021a13.228 13.228 0 0 0 1.2 6.183 5.706 5.706 0 0 0 .31.51z"/>
            <circle id="prefix__red" cx="4.25" cy="4.25" r="4.25" fill="#da291c" transform="translate(1398.75 8.75)"/>
        </g>
    </g>
</svg>
