<svg xmlns="http://www.w3.org/2000/svg" width="19" height="19" viewBox="0 0 19 19">
    <defs>
        <clipPath id="clip-path">
            <path id="사각형_702" fill="#858585" d="M0 0H19V19H0z" data-name="사각형 702" opacity="0.54" transform="translate(1068.2 259.869)"/>
        </clipPath>
    </defs>
    <g id="btn_message" transform="translate(-1068.2 -259.869)">
        <g id="마스크_그룹_7" clip-path="url(#clip-path)" data-name="마스크 그룹 7">
            <g id="icon_message_copy_2" fill="none" stroke="none" stroke-linejoin="round" data-name="icon_message copy 2">
                <path d="M1073.037 274.5a.728.728 0 0 0-.326-.876 6.656 6.656 0 0 1-3.724-5.781c0-3.773 3.589-6.844 8-6.844s8 3.07 8 6.844-3.589 6.843-8 6.843a9.436 9.436 0 0 1-1.468-.117.656.656 0 0 0-.5.123 7.841 7.841 0 0 1-2.911 1.4 4.88 4.88 0 0 0 .929-1.592z" transform="translate(.713 1)"/>
                <path fill="#666" d="M1072.11 276.099c.928-.201 1.948-.688 2.911-1.401.114-.085.253-.133.394-.133.035 0 .07.003.104.01.491.077.985.116 1.468.116 4.411 0 8-3.07 8-6.843s-3.589-6.844-8-6.844c-4.41 0-8 3.07-8 6.844 0 2.353 1.392 4.513 3.724 5.781.303.164.443.541.326.876-.205.584-.506 1.105-.927 1.594m0 1.3c-.452 0-.88-.236-1.118-.635-.285-.48-.232-1.09.133-1.513.206-.24.371-.484.504-.747-2.479-1.529-3.942-3.982-3.942-6.656 0-4.49 4.172-8.144 9.3-8.144 5.128 0 9.3 3.654 9.3 8.144s-4.172 8.143-9.3 8.143c-.464 0-.935-.032-1.406-.094-1.047.738-2.146 1.245-3.196 1.472-.092.02-.184.03-.276.03z" transform="translate(.713 1)"/>
            </g>
            <path id="icon_message_copy_2-2" fill="#666" d="M1081.02 269.13a1.16 1.16 0 1 1 1.16 1.191 1.175 1.175 0 0 1-1.16-1.191zm-4 0a1.16 1.16 0 1 1 1.16 1.191 1.175 1.175 0 0 1-1.16-1.191zm-3.99 0a1.15 1.15 0 1 1 1.149 1.191 1.17 1.17 0 0 1-1.149-1.191z" data-name="icon_message copy 2" transform="translate(-.287)"/>
        </g>
    </g>
</svg>
