<svg xmlns="http://www.w3.org/2000/svg" width="23.335" height="22.285" viewBox="0 0 23.335 22.285">
    <g id="prefix__check_on" transform="translate(-119.283 -45.16)">
        <path id="prefix__star" fill="#ff5a47" stroke="#ff5a47" d="M584.187 64.2a4.51 4.51 0 0 1 1.583 1.911 4.54 4.54 0 0 1-.17 2.489 3.9 3.9 0 0 0-.21 1.26 5.475 5.475 0 0 0 1.275.168 3.388 3.388 0 0 1 3.763 2.738 4.182 4.182 0 0 0 .588 1.155 8.907 8.907 0 0 0 1.03-.6 4.647 4.647 0 0 1 2.375-.947 4.588 4.588 0 0 1 2.36.943 4 4 0 0 0 1.1.575 6.487 6.487 0 0 0 .531-1.144 3.4 3.4 0 0 1 3.779-2.738 4.019 4.019 0 0 0 1.273-.2 7.263 7.263 0 0 0-.252-1.225 4.469 4.469 0 0 1-.161-2.5 4.427 4.427 0 0 1 1.576-1.87 4.323 4.323 0 0 0 .934-.922 4.225 4.225 0 0 0-.9-.866 4.419 4.419 0 0 1-1.605-1.908 4.58 4.58 0 0 1 .168-2.5 3.989 3.989 0 0 0 .207-1.264 6.04 6.04 0 0 0-1.253-.156 4.517 4.517 0 0 1-2.414-.611 4.564 4.564 0 0 1-1.351-2.127 4.214 4.214 0 0 0-.588-1.155 8.73 8.73 0 0 0-1.03.6 4.648 4.648 0 0 1-2.374.945 4.572 4.572 0 0 1-2.377-.97 4.09 4.09 0 0 0-1.11-.591 7.1 7.1 0 0 0-.524 1.143 4.59 4.59 0 0 1-1.338 2.113 4.54 4.54 0 0 1-2.446.624 4.172 4.172 0 0 0-1.265.2 8.97 8.97 0 0 0 .265 1.211 4.486 4.486 0 0 1 .167 2.514 4.435 4.435 0 0 1-1.575 1.871c-.311.255-.89.733-.94.94a4.477 4.477 0 0 0 .909.894z" transform="translate(-463.474 -7.011)"/>
        <g id="prefix__checkbox" transform="translate(122 47.383)">
            <circle id="prefix__타원_52" cx="9" cy="9" r="9" fill="#ff5a47" data-name="타원 52"/>
            <path id="prefix__check1" fill="#fff" stroke="#fff" stroke-width="0.5px" d="M696.731 377.057l-3.581-3.249 1.051-1.017 2.462 2.229 5.371-5.8 1.116.955z" transform="translate(-689.149 -364.218)"/>
        </g>
    </g>
</svg>
