<svg xmlns="http://www.w3.org/2000/svg" width="49.026" height="43.052" viewBox="0 0 49.026 43.052">
    <defs>
        <style>
            .prefix__cls-2{fill:#222}
        </style>
    </defs>
    <g id="prefix__icon_alert" transform="translate(-768.987 -529.629)">
        <g id="prefix__다각형_1" fill="none" stroke="none" stroke-linejoin="round" data-name="다각형 1">
            <path d="M21.776 2.935a2 2 0 0 1 3.449 0L45.23 36.987A2 2 0 0 1 43.505 40H3.495a2 2 0 0 1-1.725-3.013z" transform="translate(770 530.18)"/>
            <path fill="#222" d="M23.5 1.948c-.669 0-1.338.33-1.724.987L1.77 36.987C.987 38.32 1.948 40 3.495 40h40.01c1.547 0 2.508-1.68 1.725-3.013L25.224 2.935c-.386-.658-1.055-.987-1.724-.987m0-2.5c1.613 0 3.063.83 3.88 2.22l20.005 34.053c.828 1.408.838 3.096.026 4.514-.812 1.418-2.272 2.265-3.906 2.265H3.495C1.86 42.5.4 41.653-.411 40.235c-.812-1.418-.802-3.106.026-4.514L19.62 1.669c.817-1.39 2.267-2.22 3.88-2.22z" transform="translate(770 530.18)"/>
        </g>
        <g id="prefix__icon_alert1" transform="translate(790.677 543.886)">
            <path id="prefix__Icon_-_alert" d="M4.595 2.287A2.248 2.248 0 0 0 2.287 0 2.243 2.243 0 0 0 0 2.287 2.248 2.248 0 0 0 2.287 4.6a2.253 2.253 0 0 0 2.308-2.313z" class="prefix__cls-2" data-name="Icon - alert" transform="translate(.001 18.09)"/>
            <path id="prefix__Icon_-_alert-2" d="M.383 15.318h3.829L4.6 3.829V0H0v3.829z" class="prefix__cls-2" data-name="Icon - alert"/>
        </g>
    </g>
</svg>
