<svg xmlns="http://www.w3.org/2000/svg" width="21" height="17.132" viewBox="0 0 21 17.132">
    <path id="save" fill="#666" d="M453.4 1036.346h-15.47a2.766 2.766 0 0 0-2.763 2.763v8.842a2.766 2.766 0 0 0 2.763 2.763h5.262l-.663 1.658h-1.836v1.105h9.947v-1.105h-1.84l-.663-1.658h5.263a2.767 2.767 0 0 0 2.763-2.763v-8.842a2.766 2.766 0 0 0-2.763-2.763zm-9.684 16.026l.663-1.658h2.568l.663 1.658zm9.684-2.763h-15.47a1.66 1.66 0 0 1-1.658-1.658h18.789a1.66 1.66 0 0 1-1.661 1.658zm1.658-2.763h-18.786v-7.737a1.66 1.66 0 0 1 1.658-1.658h15.47a1.66 1.66 0 0 1 1.658 1.658z" transform="translate(-435.167 -1036.346)"/>
</svg>
