<svg xmlns="http://www.w3.org/2000/svg" width="19.584" height="22.616" viewBox="0 0 19.584 22.616">
    <g id="icon_skill" transform="translate(-777.8 -258.869)">
        <path id="패스_2165" fill="#666" d="M704.705 1042.636h-1.5a5 5 0 0 0-.231-.576l1.066-1.025a.578.578 0 0 0 0-.813l-.006-.006c-.005 0-.006-.012-.011-.017l-3.209-3.2-.034-.034a.556.556 0 0 0-.273-.141.61.61 0 0 0-.061-.012.565.565 0 0 0-.478.153l-1.026 1.066a5.2 5.2 0 0 0-.576-.231v-1.5a.576.576 0 0 0-.576-.576h-4.608a.576.576 0 0 0-.576.576v1.48c-.184.069-.368.144-.576.231l-1.025-1.049a.587.587 0 0 0-.178-.118.575.575 0 0 0-.634.118l-3.26 3.26a.576.576 0 0 0 0 .813l1.067 1.025a5.2 5.2 0 0 0-.23.576h-1.5a.576.576 0 0 0-.576.576v4.608a.576.576 0 0 0 .576.576h1.481c.069.184.144.369.23.576l-1.048 1.048a.575.575 0 0 0 0 .812l3.26 3.261a.575.575 0 0 0 .634.117.583.583 0 0 0 .178-.117l1.025-1.089a5.361 5.361 0 0 0 .576.23v2.226a2.88 2.88 0 1 0 5.76 0v-2.209c.185-.069.369-.143.576-.23l1.049 1.048a.557.557 0 0 0 .155.1v.038a.559.559 0 0 0 .418-.005.606.606 0 0 0 .16-.083c.017-.014.04-.014.056-.029l3.26-3.261.023-.023a.576.576 0 0 0 0-.812l-.791-.745-.28-.28c.086-.207.161-.392.23-.576h1.48a.576.576 0 0 0 .576-.576v-4.608a.576.576 0 0 0-.573-.573zm-7.488 5.184v7.64a1.728 1.728 0 1 1-3.456 0v-6.488h.005v-1.152h-.005a1.728 1.728 0 0 1-1.728-1.728v-2.3a1.728 1.728 0 0 1 1.728-1.728v2.88a.576.576 0 0 0 .576.576h2.3a.576.576 0 0 0 .576-.576v-2.88a1.727 1.727 0 0 1 1.728 1.728v2.3a1.728 1.728 0 0 1-1.724 1.728zm6.912-3.456v2.88h-1.313a.575.575 0 0 0-.547.4 6.837 6.837 0 0 1-.484 1.152.577.577 0 0 0 .1.674l.933.933-2.442 2.442-.231-.23-.7-.7a.573.573 0 0 0-.673-.1c-.133.069-.271.132-.4.19v-3.272a2.879 2.879 0 0 0 1.728-2.638v-2.3a2.88 2.88 0 0 0-2.88-2.88h-.576a.576.576 0 0 0-.576.576v2.88h-1.152v-2.88a.576.576 0 0 0-.576-.576h-.576a2.88 2.88 0 0 0-2.88 2.88v2.3a2.88 2.88 0 0 0 1.728 2.638V1052c-.132-.064-.27-.121-.4-.19a.575.575 0 0 0-.674.1l-.7.7-.231.23-2.442-2.442.933-.933a.577.577 0 0 0 .1-.674 6.685 6.685 0 0 1-.484-1.152.576.576 0 0 0-.547-.4h-1.314v-3.456h1.314a.576.576 0 0 0 .547-.4 6.689 6.689 0 0 1 .484-1.152.577.577 0 0 0-.1-.674l-.933-.933 2.442-2.443.231.231.7.7a.574.574 0 0 0 .674.1 6.9 6.9 0 0 1 1.152-.484.574.574 0 0 0 .4-.576v-1.284h3.456v1.313a.576.576 0 0 0 .4.576 6.878 6.878 0 0 1 1.152.484.575.575 0 0 0 .673-.1l.934-.933 2.427 2.428-.918.919a.63.63 0 0 0-.1.7 6.88 6.88 0 0 1 .484 1.152.542.542 0 0 0 .056.085.711.711 0 0 0 .053.078.467.467 0 0 0 .044.044.571.571 0 0 0 .394.168h1.313z" data-name="패스 2165" transform="translate(92.103 -776.855)"/>
    </g>
</svg>
