<svg xmlns="http://www.w3.org/2000/svg" id="prefix__icon_star" width="20" height="13.846" viewBox="0 0 20 13.846">
    <path id="prefix__icon_star-2" fill="#50b75c" d="M368 472.846h19.843l-4.642-6.677v-.025L388 459h-20z" data-name="icon_star" transform="translate(-368 -459)"/>
    <path id="prefix__shape" fill="#fff" d="M376.359 467.995l-1.719.946a.29.29 0 0 1-.416-.317l.328-2a.309.309 0 0 0-.082-.266l-1.39-1.419a.3.3 0 0 1 .159-.512l1.921-.293a.288.288 0 0 0 .216-.164l.859-1.823a.281.281 0 0 1 .514 0l.859 1.823a.288.288 0 0 0 .216.164l1.922.293a.3.3 0 0 1 .159.512l-1.39 1.419a.31.31 0 0 0-.082.266l.328 2a.29.29 0 0 1-.416.317l-1.719-.946a.276.276 0 0 0-.267 0z" transform="translate(-368.999 -458.775)"/>
</svg>
