<svg xmlns="http://www.w3.org/2000/svg" width="13.107" height="16.532" viewBox="0 0 13.107 16.532">
    <g id="icon_report" transform="translate(-369 -164.5)">
        <path id="패스_2243" fill="#222" d="M448.126 582.823h-4.833a1.938 1.938 0 0 0-3.63 0h-.768a1.939 1.939 0 0 0-1.938 1.937v11.4a1.939 1.939 0 0 0 1.938 1.937h9.231a1.939 1.939 0 0 0 1.938-1.937v-11.4a1.939 1.939 0 0 0-1.938-1.937zm.646 13.336a.647.647 0 0 1-.646.646h-9.231a.647.647 0 0 1-.646-.646v-11.4a.647.647 0 0 1 .646-.646h1.937v-.613a.646.646 0 0 1 1.292 0v6.553a.646.646 0 0 1-1.292 0v-4.648h-1.291v4.648a1.937 1.937 0 0 0 3.874 0v-5.94h4.711a.647.647 0 0 1 .646.646z" data-name="패스 2243" transform="translate(-67.957 -417.064)"/>
    </g>
</svg>
