<svg xmlns="http://www.w3.org/2000/svg" width="20.413" height="19.394" viewBox="0 0 20.413 19.394">
    <g id="btn_message" transform="translate(-1067.787 -259.804)">
        <g id="icon_message_copy_2" fill="none" stroke="none" stroke-linejoin="round" data-name="icon_message copy 2">
            <path d="M1073.547 276.2a.82.82 0 0 0-.367-.986 7.494 7.494 0 0 1-4.193-6.508c0-4.248 4.041-7.7 9.007-7.7s9.006 3.457 9.006 7.7-4.04 7.7-9.006 7.7a10.625 10.625 0 0 1-1.653-.132.739.739 0 0 0-.561.139 8.829 8.829 0 0 1-3.28 1.587 5.5 5.5 0 0 0 1.047-1.8z"/>
            <path fill="#666" d="M1072.502 277.998c1.046-.226 2.194-.774 3.278-1.577.128-.096.285-.15.444-.15.039 0 .078.004.117.01.553.088 1.11.132 1.653.132 4.966 0 9.006-3.456 9.006-7.704 0-4.248-4.04-7.705-9.006-7.705s-9.007 3.457-9.007 7.705c0 2.649 1.567 5.081 4.193 6.508.34.185.498.61.367.986-.231.658-.57 1.245-1.045 1.795m0 1.2c-.417 0-.812-.218-1.03-.586-.265-.444-.216-1.006.121-1.397.3-.348.532-.715.707-1.117-2.833-1.662-4.513-4.4-4.513-7.389 0-4.91 4.579-8.905 10.207-8.905 5.628 0 10.206 3.995 10.206 8.905 0 4.91-4.578 8.904-10.206 8.904-.544 0-1.099-.04-1.651-.118-1.175.844-2.41 1.421-3.587 1.676-.084.018-.17.027-.254.027z"/>
        </g>
        <path id="icon_message_copy_2-2" fill="#666" d="M1081.02 269.13a1.16 1.16 0 1 1 1.16 1.191 1.175 1.175 0 0 1-1.16-1.191zm-4 0a1.16 1.16 0 1 1 1.16 1.191 1.175 1.175 0 0 1-1.16-1.191zm-3.99 0a1.15 1.15 0 1 1 1.149 1.191 1.17 1.17 0 0 1-1.149-1.191z" data-name="icon_message copy 2"/>
    </g>
</svg>
