<?xml version="1.0" encoding="utf-8"?>
<!-- Generator: Adobe Illustrator 24.0.0, SVG Export Plug-In . SVG Version: 6.00 Build 0)  -->
<svg version="1.1" id="Layer_1" xmlns="http://www.w3.org/2000/svg" xmlns:xlink="http://www.w3.org/1999/xlink" x="0px" y="0px"
	 viewBox="0 0 120 31" style="enable-background:new 0 0 120 31;" xml:space="preserve">
<style type="text/css">
	.st0{fill:#E52713;}
	.st1{fill:#8BB920;}
	.st2{fill:#F49712;}
	.st3{fill:#595455;}
</style>
<g>
	<path class="st0" d="M3.7,11.3c-1.1,1-1.7,2.2-1.9,3.6v0.6c0,2.4,1.9,3.2,3.5,3.9c1.2,0.5,2.5,1.1,2.4,2.2V22
		c-0.2,0.9-1.1,1.5-2.1,1.6c-1.1,0.1-2.2-0.3-2.7-0.9C2.3,22,2,21.1,2,20.6v-0.4H0.9l-0.7,4.3l0.2,0.1C1.5,25.5,3,26,4.6,26
		c3.9,0,6.8-2.1,7.4-5.4s-1.9-4.4-3.8-5.2c-1.5-0.6-2.3-1.1-2.2-2c0.1-0.8,1-1.5,2.1-1.5c2.3-0.2,3.1,1.4,3.3,2.6l0.1,0.3h1l0.6-3.6
		L13,11.1c-1.1-1-2.7-1.5-4.4-1.5C6.8,9.5,4.9,10.2,3.7,11.3z"/>
	<path class="st0" d="M34.2,13.1c0.1-0.3,0.2-1,0.2-1h-4L28,25.7h4.1l1.5-8.3c0.1-0.6,0.6-2.4,2.5-2.4c1,0,1.9,0.4,1.4,3.2l-1.3,7.5
		h4.1l1.4-8.1c0.5-2.7,0.4-5.4-3.4-5.7l0,0C36.9,11.8,35.3,12.2,34.2,13.1z"/>
	<path class="st0" d="M63.5,10.7c0.1-0.3,0.2-1,0.2-1h-4l-2.4,13.6h4.1l1.5-8.3c0.1-0.6,0.6-2.4,2.5-2.4c1,0,1.9,0.4,1.4,3.2
		l-1.3,7.5h4.1l1.4-8.1c0.5-2.7,0.4-5.4-3.4-5.7l0,0C66.1,9.3,64.6,9.8,63.5,10.7z"/>
	<path class="st0" d="M23.6,12.1l-1.4,7.8c-0.2,1.3-0.6,2.7-2.3,2.9c-0.8,0.1-1.4-0.4-1.7-1.1c-0.1-0.5,0-1.5,0.1-2l1.3-7.6h-4.1
		l-1.3,7.6c-0.2,1.3-0.6,3.2,0.1,4.5C15.1,25.8,17,26,18,26c1.3,0,2.5-0.4,3.4-1.2c-0.1,0.3-0.2,0.9-0.2,0.9h4l2.4-13.6
		C27.6,12.1,23.6,12.1,23.6,12.1z"/>
	<path class="st1" d="M58.5,3.1c-0.2,1.4-1.6,2.5-2.9,2.5c-1.4,0-2.3-1.1-2.1-2.5s1.6-2.5,2.9-2.5C57.8,0.6,58.7,1.7,58.5,3.1z"/>
	<path class="st2" d="M51.1,5.6c-0.2,1.4-1.6,2.5-2.9,2.5c-1.4,0-2.3-1.1-2.1-2.5s1.6-2.5,2.9-2.5C50.5,3.1,51.4,4.2,51.1,5.6z"/>
	<path class="st0" d="M39.6,29.1c0.6-0.1,2.1-0.3,2.7-1.5c0.4-0.6,0.5-1.5,0.7-2.3l2.7-15.5c0.6,0.2,1.3,0.3,2,0.3
		c0.8,0,1.5-0.1,2.2-0.3l-2.6,14.9C47,26.8,46,28.1,44.4,29c-1.8,1.1-4,1.3-5.1,1.3L39.6,29.1z"/>
	<path class="st0" d="M54.6,23.3l2.8-16.1c-0.7,0.2-1.4,0.3-2.2,0.3s-1.5-0.1-2-0.3l-2.8,16.1H54.6z"/>
</g>
<g>
	<path class="st3" d="M78.4,9.3h2.8v5.6h5.6V9.3h2.8v14h-2.8v-6.1h-5.6v6.1h-2.8V9.3z"/>
	<path class="st3" d="M92.4,9.3h4.5l3.3,10.6l0,0l3.3-10.6h4.5v14h-2.7V11.8l0,0l-3.8,11.5h-2.7L95,11.8l0,0v11.5h-2.7L92.4,9.3
		L92.4,9.3z"/>
	<path class="st3" d="M118.4,11.9c-0.9-0.4-1.9-0.6-2.8-0.6c-1,0-2.2,0.4-2.2,1.9c0,2.4,6.1,1.4,6.1,6.1c0,3.1-2.4,4.2-5.2,4.2
		c-1.5,0-2.2-0.2-3.6-0.5l0.3-2.5c1,0.5,2.1,0.9,3.2,0.9s2.5-0.5,2.5-1.8c0-2.7-6.1-1.6-6.1-6.2c0-3.1,2.4-4.3,4.9-4.3
		c1.2,0,2.3,0.2,3.3,0.5L118.4,11.9z"/>
</g>
</svg>
