<svg xmlns="http://www.w3.org/2000/svg" width="32" height="32" viewBox="0 0 32 32">
    <defs>
        <clipPath id="clip-path">
            <circle id="타원_49" cx="16" cy="16" r="16" fill="red"/>
        </clipPath>
        <style>
            .cls-4{fill:transparent;stroke-linejoin:round}.cls-5,.cls-7{stroke:none}.cls-7{fill:#222}
        </style>
    </defs>
    <g id="_-e-_ico_profile" transform="translate(.001 .42)">
        <g id="Ellipse_636" fill="rgba(85,85,85,0)" stroke="#222" stroke-linejoin="round" stroke-width="2px" transform="translate(0 -.42)">
            <circle cx="16" cy="16" r="16" class="cls-5"/>
            <circle cx="16" cy="16" r="15" fill="none"/>
        </g>
        <g id="마스크_그룹_2" clip-path="url(#clip-path)" transform="translate(-.001 -.42)">
            <g id="icon_pro_copy" class="cls-4">
                <path d="M1508.861 29.496H1497.138l-.299-.344-2.595-2.985-.246-.282v-.374c0-1.75.93-3.338 2.62-4.47 1.64-1.1 3.847-1.682 6.381-1.682 2.548 0 4.767.597 6.417 1.726 1.667 1.14 2.584 2.712 2.584 4.426v.374l-.245.282-2.595 2.985-.299.344z" class="cls-5" transform="translate(-1487 2.757)"/>
                <path d="M1508.405 28.496L1511 25.51c0-2.734-3.063-5.152-8-5.152-4.865 0-8.002 2.315-8.002 5.152l2.596 2.985h10.811m0 2h-10.811c-.58 0-1.13-.25-1.51-.688l-2.595-2.985c-.316-.364-.49-.83-.49-1.312 0-1.071.286-2.091.851-3.032.525-.874 1.27-1.637 2.211-2.269 1.806-1.21 4.205-1.85 6.938-1.85 2.75 0 5.165.656 6.982 1.9 1.919 1.312 3.02 3.226 3.02 5.251 0 .482-.175.948-.491 1.312l-2.595 2.985c-.38.437-.93.688-1.51.688z" class="cls-7" transform="translate(-1487 2.757)"/>
            </g>
            <g id="icon_pro_copy-2" class="cls-4">
                <path d="M1501.003 22.452c-2.762 0-5.008-2.261-5.008-5.041 0-2.78 2.246-5.042 5.008-5.042s5.008 2.262 5.008 5.042-2.246 5.041-5.008 5.041z" class="cls-5" transform="translate(-1485.004 -4.416)"/>
                <path d="M1501.003 13.37c-2.213 0-4.008 1.809-4.008 4.04 0 2.233 1.795 4.042 4.008 4.042 2.214 0 4.008-1.809 4.008-4.041s-1.794-4.042-4.008-4.042m0-2c3.313 0 6.008 2.71 6.008 6.042 0 3.331-2.695 6.041-6.008 6.041s-6.008-2.71-6.008-6.041c0-3.331 2.695-6.042 6.008-6.042z" class="cls-7" transform="translate(-1485.004 -4.416)"/>
            </g>
        </g>
    </g>
</svg>
