<svg xmlns="http://www.w3.org/2000/svg" width="16.002" height="16.002" viewBox="0 0 16.002 16.002">
    <g>
        <g>
            <path fill="#707070" d="M-17998.516-5602.625a7.915 7.915 0 0 1-2.486-5.8 8.011 8.011 0 0 1 8-8 8.01 8.01 0 0 1 8 8 7.964 7.964 0 0 1-2.273 5.586 6.344 6.344 0 0 0-5.727-3.174 6.305 6.305 0 0 0-5.729 3.171c.076.078.154.153.213.211zM-17993-5613a3 3 0 0 0-3 3 3 3 0 0 0 3 3 3 3 0 0 0 3-3 3 3 0 0 0-3-3z" transform="translate(.002 .422) translate(18001 5616)"/>
            <g fill="none" stroke="#707070" transform="translate(.002 .422) translate(0 -.42)">
                <circle cx="8" cy="8" r="8" stroke="none"/>
                <circle cx="8" cy="8" r="7.5"/>
            </g>
        </g>
    </g>
</svg>
