<svg xmlns="http://www.w3.org/2000/svg" width="19.211" height="13.5" viewBox="0 0 19.211 13.5">
    <g id="pw_off" transform="translate(-642.244 -86.517)">
        <path id="패스_2256" fill="#999" stroke="#999" stroke-width="0.2px" d="M651.849 100.47c-5.168 0-9.236 5.451-9.406 5.683a.444.444 0 0 0 0 .527 18.221 18.221 0 0 0 2.838 2.935 13.774 13.774 0 0 0 2.958 1.9 8.608 8.608 0 0 0 3.61.85c5.164 0 9.235-5.451 9.406-5.683a.443.443 0 0 0 0-.527c-.17-.234-4.238-5.685-9.406-5.685zm8.376 6.067c-.958 1.157-4.392 4.934-8.376 4.934s-7.416-3.777-8.376-4.935l-.1-.119.1-.12c.958-1.157 4.392-4.934 8.376-4.934s7.416 3.777 8.376 4.935l.1.119z" data-name="패스 2256" transform="translate(0 -13.15)"/>
        <circle id="타원_64" cx="3.5" cy="3.5" r="3.5" fill="#999" data-name="타원 64" transform="translate(648.356 89.767)"/>
        <path id="사각형_877" fill="#fff" d="M0 0H3V9H0z" data-name="사각형 877" transform="rotate(-44.03 436.445 -755.275)"/>
        <path id="패스_2259" fill="#999" stroke="#999" stroke-width="0.5px" d="M730.3 95.428l-4.6-4.745-3.725-3.843a.233.233 0 0 0-.337 0l-.073.076a.252.252 0 0 0 0 .348l3.724 3.843 4.6 4.746 3.724 3.843a.233.233 0 0 0 .337 0l.073-.076a.252.252 0 0 0 0-.348z" data-name="패스 2259" transform="translate(-75.95)"/>
    </g>
</svg>
