<svg xmlns="http://www.w3.org/2000/svg" width="20" height="15.516" viewBox="0 0 20 15.516">
    <g id="btn_date_set" transform="translate(-.586 -1)">
        <path id="filter2" fill="#222" d="M1532.67 174.7a2.5 2.5 0 0 0-2.411 1.875h-6.339v1.25h6.339a2.488 2.488 0 0 0 4.822 0h8.839v-1.25h-8.839a2.5 2.5 0 0 0-2.411-1.875m6.25-1.508a1.25 1.25 0 1 1 1.25-1.25 1.251 1.251 0 0 1-1.25 1.25m0-3.75a2.5 2.5 0 0 0-2.411 1.875h-12.589v1.25h12.589a2.488 2.488 0 0 0 4.822 0h2.589v-1.25h-2.589a2.5 2.5 0 0 0-2.411-1.875m-6.964-3.383a2.488 2.488 0 0 0-4.823 0h-3.214v1.25h3.214a2.488 2.488 0 0 0 4.823 0h11.964v-1.25zm.714 12.391a1.25 1.25 0 1 1 1.25-1.25 1.251 1.251 0 0 1-1.25 1.25m-3.125-10.516a1.25 1.25 0 1 1 1.25-1.25 1.251 1.251 0 0 1-1.25 1.25" transform="translate(-1523.334 -163.18)"/>
    </g>
</svg>
