<svg xmlns="http://www.w3.org/2000/svg" width="25" height="22" viewBox="0 0 25 22">
    <defs>
        <clipPath id="clip-path">
            <path id="패스_2111" fill="red" d="M0 0h25v22H0z" data-name="패스 2111" transform="translate(1827 12)"/>
        </clipPath>
    </defs>
    <g id="ico_setup" clip-path="url(#clip-path)" transform="translate(-1827 -12)">
        <g id="icon_setup" transform="translate(1827.412 12.44)">
            <g id="패스_2108" fill="#222" stroke="none" data-name="패스 2108">
                <path d="M301.82 983.66h-1.707c-.66 0-1.218-.472-1.328-1.124l-.21-1.268c-.398-.128-.778-.285-1.133-.465l-1.062.755c-.227.164-.496.25-.778.25-.359 0-.697-.14-.951-.396l-1.205-1.203c-.468-.465-.53-1.194-.146-1.735l.743-1.032c-.197-.378-.363-.77-.493-1.17l-1.285-.218c-.65-.11-1.123-.669-1.123-1.33v-1.7c0-.661.473-1.22 1.124-1.33l1.25-.21c.128-.406.289-.802.479-1.177l-.756-1.062c-.382-.538-.32-1.266.146-1.733l1.21-1.206c.25-.254.587-.395.95-.395.285 0 .556.087.784.251l1.035.746c.377-.197.77-.362 1.17-.493l.219-1.285c.11-.65.668-1.123 1.328-1.123h1.702c.156 0 .312.028.464.082l.234.085-.184.167c-.323.294-.599.624-.82.982l-.044.071h-1.307l-.285 1.675c-.046.266-.245.484-.509.556-.573.148-1.128.382-1.652.695-.11.064-.233.098-.358.098-.146 0-.286-.044-.404-.128l-1.365-.973-1.154 1.154.985 1.384c.16.222.174.518.036.753-.3.511-.527 1.07-.675 1.659-.068.268-.288.47-.562.515l-1.65.277v1.63l1.675.284c.265.047.483.246.556.508.15.578.383 1.134.695 1.653.14.24.129.538-.03.762l-.973 1.365 1.153 1.154 1.386-.985c.111-.083.255-.13.402-.13.122 0 .242.033.35.094.519.297 1.064.52 1.62.664.264.068.464.286.51.556l.278 1.663h1.66l.01-.013.004-.006.005-.005.436-.477.206-.226.052.301c.002.008.142.804.32 1.166l.044.09-.065.074c-.266.31-.624.48-1.007.48z" transform="translate(-290.292 -963.188)"/>
                <path d="M301.82 983.51c.36 0 .673-.17.894-.427-.19-.386-.333-1.206-.333-1.206l-.436.477c-.038.05-.072.073-.125.073h-1.702c-.053 0-.098-.036-.105-.09l-.283-1.697c-.037-.214-.195-.384-.4-.437-.579-.15-1.136-.38-1.658-.679-.086-.048-.182-.073-.275-.073-.109 0-.222.032-.315.101l-1.415 1.007c-.02.012-.041.02-.062.02-.016 0-.047-.004-.076-.032l-1.204-1.205c-.037-.036-.041-.093-.013-.138l.995-1.394c.125-.178.133-.412.024-.599-.316-.525-.558-1.095-.711-1.69-.058-.205-.227-.363-.437-.4l-1.71-.29c-.053-.009-.09-.053-.09-.106v-1.702c0-.052.037-.097.09-.105l1.685-.284c.215-.035.388-.193.441-.404.15-.594.38-1.168.692-1.697.109-.187.096-.417-.03-.59l-1.006-1.415c-.028-.041-.023-.102.012-.138l1.205-1.205c.029-.028.057-.032.077-.032.025 0 .044.007.06.02l1.396.995c.094.067.205.1.317.1.097 0 .194-.026.28-.076.527-.315 1.096-.558 1.69-.712.207-.056.365-.227.4-.436l.293-1.71c.007-.053.051-.09.104-.09h1.26c.232-.375.517-.714.847-1.014-.129-.046-.268-.073-.413-.073h-1.702c-.586 0-1.083.42-1.18.999l-.235 1.374c-.453.142-.894.328-1.314.554l-1.111-.8c-.202-.146-.445-.223-.696-.223-.319 0-.623.126-.844.352l-1.21 1.205c-.412.412-.469 1.063-.13 1.54l.809 1.137c-.222.423-.4.864-.537 1.322l-1.342.225c-.579.098-.999.595-.999 1.181v1.702c0 .587.42 1.084.999 1.18l1.374.235c.142.453.328.893.554 1.314l-.797 1.107c-.34.478-.286 1.129.13 1.542l1.205 1.204c.226.227.525.352.845.352.25 0 .489-.077.69-.223l1.138-.808c.407.214.836.388 1.277.525l.226 1.359c.097.578.594.998 1.18.998h1.707m0 .3h-1.707c-.733 0-1.354-.525-1.476-1.249l-.196-1.179c-.343-.115-.674-.25-.986-.405l-.988.704c-.252.181-.551.278-.865.278-.4 0-.775-.157-1.058-.44l-1.204-1.204c-.52-.516-.589-1.327-.162-1.927l.69-.96c-.17-.331-.313-.674-.432-1.022l-1.196-.204c-.723-.122-1.248-.743-1.248-1.477v-1.702c0-.734.525-1.355 1.249-1.476l1.16-.196c.116-.354.257-.7.42-1.03l-.704-.99c-.425-.596-.357-1.407.162-1.925l1.21-1.206c.276-.282.652-.439 1.056-.439.317 0 .618.097.872.28l.96.691c.332-.168.675-.312 1.024-.43l.204-1.197c.122-.723.742-1.248 1.476-1.248h1.702c.173 0 .347.03.515.091l.469.17-.37.335c-.312.283-.579.603-.792.949l-.088.142h-1.264l-.264 1.55c-.055.324-.298.589-.617.676-.561.145-1.103.373-1.615.68-.134.077-.283.118-.435.118-.177 0-.347-.054-.49-.155l-1.263-.9-.974.974.911 1.281c.194.27.212.63.044.916-.294.5-.515 1.044-.66 1.62-.082.325-.35.571-.683.626l-1.523.256v1.376l1.55.264c.322.056.586.297.675.615v.002l.001.003c.145.562.373 1.104.678 1.611.17.291.156.653-.036.926l-.9 1.262.974.975 1.28-.91c.139-.103.313-.16.491-.16.148 0 .294.04.423.114.509.29 1.042.508 1.585.649.32.082.564.348.62.676l.257 1.538h1.464l.413-.452.412-.451.105.602c.038.216.167.84.307 1.125l.087.178-.13.15c-.294.343-.692.531-1.12.531z" transform="translate(-290.292 -963.188)"/>
            </g>
            <path id="패스_2110" fill="#222" stroke="#222" stroke-width="0.5px" d="M297.416 973.27a2.949 2.949 0 0 1 2.918-2.974 2.849 2.849 0 0 1 .954.177l-.445-1.166a2.649 2.649 0 0 0-.469-.06h-.04a4.026 4.026 0 0 0 0 8.05 3.837 3.837 0 0 0 1.359-.26v-1.149a2.84 2.84 0 0 1-1.359.357 2.948 2.948 0 0 1-2.918-2.975z" data-name="패스 2110" transform="translate(-289.881 -962.474)"/>
            <g id="그룹_1038" data-name="그룹 1038" transform="translate(-727.688 -1034.944)">
                <path id="패스_2166" fill="#222" stroke="#222" stroke-width="0.2px" d="M747.814 1035.5h-.685a.685.685 0 0 0-.685.685v3.427h-1.371v-3.427a.685.685 0 0 0-.685-.685h-.688a3.426 3.426 0 0 0-3.427 3.427v2.741a3.428 3.428 0 0 0 2.056 3.139v8.124a3.427 3.427 0 0 0 6.853 0v-8.124a3.429 3.429 0 0 0 2.056-3.139v-2.741a3.426 3.426 0 0 0-3.424-3.427zm2.056 6.168a2.057 2.057 0 0 1-2.056 2.056v9.207a2.056 2.056 0 1 1-4.112 0v-9.207a2.057 2.057 0 0 1-2.056-2.056v-2.741a2.056 2.056 0 0 1 2.056-2.056v3.427a.686.686 0 0 0 .685.686h2.741a.686.686 0 0 0 .685-.686v-3.427a2.056 2.056 0 0 1 2.056 2.056z" data-name="패스 2166"/>
            </g>
        </g>
    </g>
</svg>
