<svg xmlns="http://www.w3.org/2000/svg" width="20.721" height="19.761" viewBox="0 0 20.721 19.761">
    <path id="btn_message" fill="#222" d="M2.92 19.094a1.207 1.207 0 0 1 .283-1.43A4.676 4.676 0 0 0 4.3 16.4 8.735 8.735 0 0 1 0 9.053C0 4.061 4.648 0 10.36 0s10.361 4.061 10.361 9.053-4.648 9.053-10.361 9.053A11.874 11.874 0 0 1 8.808 18a9.051 9.051 0 0 1-4.852 1.759 1.162 1.162 0 0 1-1.036-.665zM1.509 9.053a7.281 7.281 0 0 0 4.12 6.329.794.794 0 0 1 .361.958 5.336 5.336 0 0 1-1.026 1.746 8.722 8.722 0 0 0 3.22-1.535.732.732 0 0 1 .551-.135 10.606 10.606 0 0 0 1.625.128c4.88 0 8.851-3.361 8.851-7.492s-3.971-7.49-8.851-7.49-8.851 3.36-8.851 7.491zm11.689 0a1.16 1.16 0 1 1 1.16 1.191A1.175 1.175 0 0 1 13.2 9.051zm-4 0a1.16 1.16 0 1 1 1.16 1.191A1.175 1.175 0 0 1 9.2 9.051zm-3.991 0a1.151 1.151 0 1 1 1.15 1.191 1.171 1.171 0 0 1-1.149-1.193z"/>
</svg>
