<svg xmlns="http://www.w3.org/2000/svg" width="17.288" height="20.2" viewBox="0 0 17.288 20.2">
    <defs>
        <style>
            .cls-2{fill:none;stroke:#222;stroke-width:1.2px}
        </style>
    </defs>
    <g id="task_delete" transform="translate(.1 .1)">
        <g id="btn_delete">
            <g id="그룹_1047" data-name="그룹 1047">
                <g id="패스_2193" fill="#222" stroke="none" data-name="패스 2193">
                    <path d="M667.162 939.387h-12.215c-.699 0-1.267-.553-1.267-1.233v-14.149h-1.219V922.722H656.234v-2.793c0-.354.296-.642.66-.642h8.323c.363 0 .659.288.659.642v2.793H669.649V924.005h-1.219v14.149c0 .68-.569 1.233-1.268 1.233zm-12.165-1.283h12.115v-14.099h-12.115v14.099zm2.555-15.382h7.005v-2.152h-7.005v2.152z" transform="translate(-652.511 -919.337)"/>
                    <path d="M656.893 919.337c-.336 0-.609.265-.609.592v2.843h-3.773v1.183h1.219v14.199c0 .652.546 1.183 1.217 1.183h12.215c.672 0 1.218-.53 1.218-1.183v-14.199h1.219v-1.183h-3.773v-2.843c0-.327-.273-.592-.61-.592h-8.323m7.714 3.435h-7.105v-2.252h7.105v2.252m2.555 15.973v-.591h-12.215v-14.199h12.215v14.199h.002l-.002.591m-10.269-19.508h8.324c.39 0 .709.31.709.692v2.743h3.773V924.055h-1.219v14.099c0 .707-.591 1.283-1.318 1.283h-12.215c-.726 0-1.317-.576-1.317-1.283v-14.099h-1.219V922.672h3.773v-2.743c0-.382.318-.692.71-.692zm7.614 1.383h-6.905v2.052h6.905v-2.052zm2.555 3.435h-12.015v13.999h12.015v-13.999z" transform="translate(-652.511 -919.337)"/>
                </g>
                <path id="선_48" d="M0 0L0 9" class="cls-2" data-name="선 48" transform="translate(6.636 7)"/>
                <path id="선_49" d="M0 0L0 9" class="cls-2" data-name="선 49" transform="translate(10.536 7)"/>
            </g>
        </g>
    </g>
</svg>
